# xmcd
#
# Track frame offsets: 
#        150
#        16721
#        42637
#        68537
#
# Disc length: 1128 seconds
#
# Revision: 0
# Processed by: cddbd v1.5.2PL0 Copyright (c) Steve Scherf et al.
# Submitted via: ExactAudioCopy v0.90b3
#
DISCID=28046604
DTITLE=Los Reyes - Gipsy In New York
DYEAR=1999
DGENRE=Latin
TTITLE0=Gipsy In New York (radio version)
TTITLE1=Gipsy In New York (extended radio version)
TTITLE2=Gipsy In New York (club mix)
TTITLE3=Todos Ole (radio club mix)
EXTD=
EXTT0=
EXTT1=
EXTT2=
EXTT3=
PLAYORDER=
